<svg width="124" height="83" viewBox="0 0 124 83" fill="none" xmlns="http://www.w3.org/2000/svg">
<g clip-path="url(#clip0_3241_42643)">
<path fill-rule="evenodd" clip-rule="evenodd" d="M3.68066 33.083H16.6448C23.0355 33.083 28.5181 35.3702 33.0926 39.9447C37.6334 44.5575 39.9062 50.0594 39.9062 56.4501C39.9062 62.8025 37.6334 68.2851 33.0926 72.8979C28.5181 77.4772 23.0355 79.7692 16.6448 79.7692H3.68066V33.083ZM16.6496 36.9751H8.19264C7.71213 36.9751 7.47188 37.2154 7.47188 37.6959V75.2092C7.47188 75.6897 7.71213 75.9299 8.19264 75.9299H16.6496C22.0169 75.9299 26.5913 74.0367 30.3825 70.2455C34.2122 66.4159 36.1246 61.8222 36.1246 56.4549C36.1246 51.1597 34.2122 46.5613 30.3825 42.6643C26.5913 38.8683 22.0121 36.9751 16.6496 36.9751Z" fill="#010101"/>
<path fill-rule="evenodd" clip-rule="evenodd" d="M46.7915 32.5679C48.0552 32.5679 49.1748 32.9523 50.1454 33.7211C51.1209 34.4899 51.7455 35.4894 52.0194 36.7147L62.5281 79.7682H58.5784L55.2004 66.1362C55.1283 65.622 54.84 65.3674 54.3259 65.3674H39.2091C38.6661 65.3674 38.373 65.622 38.3345 66.1362L34.9566 79.7682H31.0645L41.5155 36.7147C41.7894 35.4894 42.4093 34.4899 43.3799 33.7211C44.3601 32.9523 45.4941 32.5679 46.7915 32.5679ZM46.7915 36.46C45.9746 36.46 45.4605 36.854 45.2539 37.6372L39.5695 60.8074C39.4685 61.3215 39.6511 61.5762 40.1316 61.5762H53.4081C53.9222 61.5762 54.1048 61.3215 53.9703 60.8074L48.2859 37.6372C48.1417 36.854 47.6468 36.46 46.7915 36.46Z" fill="#010101"/>
<path fill-rule="evenodd" clip-rule="evenodd" d="M97.1444 33.0254L105.448 52.3514C106.029 53.6873 106.322 55.0567 106.322 56.4502C106.322 57.8148 106.029 59.1699 105.448 60.5009L97.1444 79.7692H92.9976L101.911 59.0113C102.219 58.1896 102.377 57.3343 102.377 56.4502C102.377 55.5276 102.219 54.6579 101.911 53.841L92.9976 33.0254H97.1444ZM121.535 33.0254L112.622 53.841C112.28 54.7588 112.107 55.6333 112.107 56.4502C112.107 57.2334 112.276 58.0887 112.622 59.0113L121.535 79.7692H117.34L109.037 60.5009C108.456 59.165 108.162 57.8148 108.162 56.4502C108.162 55.0519 108.456 53.6824 109.037 52.3514L117.34 33.0254H121.535Z" fill="#F10B0B"/>
<path fill-rule="evenodd" clip-rule="evenodd" d="M79.0725 79.4377H66.4591C65.4596 79.4377 64.7341 79.231 64.2824 78.813C63.8355 78.395 63.4415 77.4724 63.1052 76.0357C62.6102 73.7677 62.1922 70.6059 61.8558 66.5552C61.5243 62.4997 61.3609 58.2136 61.3609 53.7112C61.3609 44.1011 62.2931 33.7749 64.1623 22.7329C64.6956 19.696 64.9647 17.7932 64.9647 17.0244C64.9647 15.7895 64.7965 14.9678 64.4602 14.5498C64.1286 14.1318 63.4944 13.9251 62.5622 13.9251C61.5243 13.9251 60.0635 14.4008 58.1799 15.3522C56.2916 16.3037 54.0668 17.6779 51.4913 19.475C50.4918 20.1814 49.1224 21.2817 47.3925 22.7809C45.6579 24.2849 44.4038 25.0297 43.635 25.0297C43.2025 25.0297 42.8661 24.799 42.6355 24.3329C42.4001 23.8669 42.2847 23.1941 42.2847 22.3292C42.2847 21.7959 42.501 20.4937 42.9334 18.4275C43.3707 16.3565 43.707 14.6555 43.9425 13.3197C44.0049 12.8488 44.1203 12.1665 44.2884 11.2631C44.9227 7.76021 45.7924 5.6748 46.8928 5.0069C49.1992 3.64225 52.6781 2.46501 57.3294 1.48477C61.976 0.494924 66.8387 0 71.9129 0C79.8893 0 86.578 0.754398 91.9837 2.25839C97.3894 3.76238 100.095 5.52585 100.095 7.5584C100.095 10.23 99.4316 13.1948 98.115 16.4478C96.7936 19.7008 95.7557 21.325 94.9917 21.325C94.689 21.325 94.0163 20.7916 92.9832 19.7249C91.9501 18.6581 90.9698 17.7932 90.0377 17.1205C88.5673 15.9529 87.2603 15.0928 86.1071 14.5402C84.9587 13.9924 83.8823 13.7137 82.8781 13.7137C80.6053 13.7137 78.9619 15.6982 77.9433 19.672C76.9294 23.641 76.42 30.1615 76.42 39.2383C76.42 52.3514 78.1355 64.3785 81.5759 75.3245C82.042 76.7612 82.2726 77.6117 82.2726 77.8808C82.2726 78.3133 81.9699 78.6833 81.3693 78.986C80.7686 79.2887 80.0046 79.4377 79.0725 79.4377Z" fill="#16BD36"/>
<path fill-rule="evenodd" clip-rule="evenodd" d="M85.0212 75.4933C85.05 75.5798 85.0788 75.6711 85.1077 75.7672C85.3239 76.3774 85.8044 76.8387 86.5492 77.1607C87.294 77.4778 88.0099 77.5979 88.6874 77.521C89.2208 77.4778 89.759 77.1799 90.2971 76.6225C90.8353 76.0603 91.5321 76.0939 92.3777 76.7186C92.7477 76.9588 92.7141 77.3433 92.272 77.8718C91.8348 78.3956 91.484 78.7511 91.2245 78.9385C91.0467 79.0635 90.8689 79.1692 90.6864 79.2605C90.201 79.5103 89.7109 79.6593 89.2208 79.7074C88.7307 79.7506 88.2454 79.7458 87.7697 79.6977C87.1162 79.6401 86.4915 79.4911 85.8957 79.2557C85.4248 79.0731 84.9731 78.8328 84.5407 78.5349C84.113 78.2322 83.7334 77.8622 83.4115 77.4201C82.8012 76.6081 82.3928 75.7143 82.1862 74.7293C81.8594 73.2061 82.2342 71.9423 83.3154 70.9237C83.8535 70.4095 84.4638 70.0203 85.1413 69.7608C85.8236 69.5062 86.6357 69.314 87.5775 69.1938C88.5241 69.0737 89.4803 69.2659 90.4509 69.7704C91.4215 70.275 92.0222 71.0005 92.2624 71.9471C92.4979 72.8985 92.5363 73.5617 92.3825 73.9316C92.2336 74.3064 91.9741 74.5467 91.6137 74.6428C91.2534 74.7533 89.0574 75.0368 85.0212 75.4933ZM90.3068 72.8986C89.956 72.1345 89.3169 71.779 88.3991 71.8318C87.4814 71.8847 86.7654 72.0048 86.2609 72.1922C85.7515 72.3748 85.3767 72.7736 85.1317 73.3839C85.1077 73.4271 85.0884 73.4656 85.0692 73.4944L90.3068 72.8986Z" fill="#16BD36"/>
<path d="M0 81.7104H124" stroke="#010101" stroke-width="1.53763" stroke-miterlimit="10"/>
<path d="M84.7425 67.3433H90.9026" stroke="#16BD36" stroke-width="1.53763" stroke-miterlimit="10" stroke-linecap="round"/>
</g>
<defs>
<clipPath id="clip0_3241_42643">
<rect width="124" height="82.4793" fill="white"/>
</clipPath>
</defs>
</svg>
