<svg width="24" height="24" viewBox="0 0 24 24" fill="none" xmlns="http://www.w3.org/2000/svg">
<path d="M14 22.0001H6.59087C5.04549 22.0001 3.81631 21.2481 2.71266 20.1967C0.453365 18.0442 4.1628 16.3241 5.57757 15.4817C8.12805 13.963 9.5 14 12.5 14.0001" stroke="black" stroke-width="1.5" stroke-linecap="round" stroke-linejoin="round"/>
<path d="M16.5 6.5C16.5 8.98528 14.4853 11 12 11C9.51472 11 7.5 8.98528 7.5 6.5C7.5 4.01472 9.51472 2 12 2C14.4853 2 16.5 4.01472 16.5 6.5Z" stroke="black" stroke-width="1.5"/>
<path d="M21.9375 13.75L21.6535 18.7625C21.5809 20.0432 21.5446 20.6836 21.2503 21.1439C21.1049 21.3715 20.9175 21.5636 20.7003 21.708C20.261 22 19.6729 22 18.4967 22C17.3189 22 16.7301 22 16.2904 21.7075C16.073 21.5628 15.8857 21.3704 15.7402 21.1424C15.4461 20.6813 15.4106 20.0401 15.3396 18.7576L15.0625 13.75" stroke="black" stroke-width="1.5" stroke-linecap="round"/>
<path d="M14.375 13.75H22.625M20.3589 13.75L20.046 13.0459C19.8381 12.5781 19.7342 12.3443 19.555 12.1984C19.5152 12.166 19.4731 12.1373 19.4291 12.1124C19.2305 12 18.9923 12 18.5158 12C18.0274 12 17.7832 12 17.5814 12.1171C17.5366 12.143 17.494 12.1729 17.4538 12.2066C17.2724 12.3584 17.1711 12.6008 16.9685 13.0856L16.6909 13.75" stroke="black" stroke-width="1.5" stroke-linecap="round"/>
</svg>
