<svg width="35" height="35" viewBox="0 0 35 35" fill="none" xmlns="http://www.w3.org/2000/svg">
<g clip-path="url(#clip0_3131_20085)">
<path d="M9.1147 28.4375C6.77991 28.4375 4.70324 26.9428 3.94928 24.7173L3.89824 24.5496C3.72033 23.9605 3.64595 23.4646 3.64595 22.9688V13.0259L0.108035 24.8355C-0.346965 26.5723 0.68991 28.3734 2.4297 28.8532L24.9799 34.8921C25.2614 34.965 25.5428 35 25.8199 35C27.2724 35 28.5995 34.0361 28.9714 32.6157L30.2853 28.4375H9.1147Z" fill="#838283"/>
<path d="M13.1252 13.1248C14.7337 13.1248 16.0418 11.8167 16.0418 10.2082C16.0418 8.59963 14.7337 7.2915 13.1252 7.2915C11.5166 7.2915 10.2085 8.59963 10.2085 10.2082C10.2085 11.8167 11.5166 13.1248 13.1252 13.1248Z" fill="#838283"/>
<path d="M31.3541 2.9165H9.47909C7.4695 2.9165 5.83325 4.55275 5.83325 6.56234V22.604C5.83325 24.6136 7.4695 26.2498 9.47909 26.2498H31.3541C33.3637 26.2498 34.9999 24.6136 34.9999 22.604V6.56234C34.9999 4.55275 33.3637 2.9165 31.3541 2.9165ZM9.47909 5.83317H31.3541C31.7566 5.83317 32.0833 6.15984 32.0833 6.56234V16.915L27.4764 11.5396C26.9878 10.9665 26.2805 10.6603 25.5208 10.6428C24.7653 10.6471 24.0566 10.9825 23.5724 11.563L18.1562 18.0642L16.3916 16.304C15.3941 15.3065 13.771 15.3065 12.7749 16.304L8.74992 20.3275V6.56234C8.74992 6.15984 9.07659 5.83317 9.47909 5.83317Z" fill="#838283"/>
</g>
<defs>
<clipPath id="clip0_3131_20085">
<rect width="35" height="35" fill="white"/>
</clipPath>
</defs>
</svg>
