<svg width="24" height="24" viewBox="0 0 24 24" fill="none" xmlns="http://www.w3.org/2000/svg">
<path d="M12.3039 4.59804L7.20922 9.05617C6.77232 9.43848 7.06526 10.1175 7.66709 10.1175C8.03477 10.1175 8.33283 10.3928 8.33283 10.7324V13.5705C8.33283 16.0121 8.33283 17.233 9.15404 17.9915C9.97525 18.75 11.297 18.75 13.9404 18.75H15.8096C18.453 18.75 19.7747 18.75 20.596 17.9915C21.4172 17.233 21.4172 16.0121 21.4172 13.5705V10.7324C21.4172 10.3928 21.7152 10.1175 22.0829 10.1175C22.6847 10.1175 22.9777 9.43848 22.5408 9.05617L17.4461 4.59804C16.2286 3.53268 15.6198 3 14.875 3C14.1302 3 13.5214 3.53268 12.3039 4.59804Z" stroke="#141B34" stroke-width="1.5" stroke-linecap="round" stroke-linejoin="round"/>
<path d="M14.875 14.375H14.8829" stroke="#141B34" stroke-width="2" stroke-linecap="round" stroke-linejoin="round"/>
<path d="M6.30395 7.59804L1.20922 12.0562C0.772323 12.4385 1.06526 13.1175 1.66709 13.1175C2.03477 13.1175 2.33283 13.3928 2.33283 13.7324V16.5705C2.33283 19.0121 2.33283 20.233 3.15404 20.9915C3.97525 21.75 5.29697 21.75 7.94041 21.75H9.8096C12.453 21.75 13.7748 21.75 14.596 20.9915C15.4172 20.233 15.4172 19.0121 15.4172 16.5705V13.7324C15.4172 13.3928 15.7152 13.1175 16.0829 13.1175C16.6847 13.1175 16.9777 12.4385 16.5408 12.0562L11.4461 7.59804C10.2286 6.53268 9.61982 6 8.875 6C8.13018 6 7.52144 6.53268 6.30395 7.59804Z" fill="white" stroke="#141B34" stroke-width="1.5" stroke-linecap="round" stroke-linejoin="round"/>
<path fill-rule="evenodd" clip-rule="evenodd" d="M8.875 17.375H8.88286H8.875Z" fill="white"/>
<path d="M8.875 17.375H8.88286" stroke="#141B34" stroke-width="2" stroke-linecap="round" stroke-linejoin="round"/>
</svg>
