<svg width="21" height="21" viewBox="0 0 21 21" fill="none" xmlns="http://www.w3.org/2000/svg">
<path d="M18.8584 11.8567C17.6689 13.046 15.4308 12.9998 11.9992 12.9998C9.79142 12.9998 8.00138 11.2071 8.00024 8.99933C8.00024 5.57001 7.954 3.33065 9.14346 2.14138C10.3329 0.952118 10.8583 1.00027 16.1274 1.00027C16.6366 0.99809 16.8929 1.61389 16.5329 1.97394L13.8199 4.68714C13.1313 5.37582 13.1294 6.49233 13.8181 7.18092C14.5068 7.86952 15.6234 7.86959 16.3122 7.18109L19.0259 4.46855C19.386 4.10859 20.0019 4.36483 19.9997 4.87395C19.9997 10.1422 20.0479 10.6675 18.8584 11.8567Z" stroke="black" stroke-width="1.5"/>
<path d="M12 13L5.82842 19.1716C4.72386 20.2761 2.933 20.2761 1.82843 19.1716C0.723857 18.067 0.723858 16.2761 1.82843 15.1716L8 9" stroke="black" stroke-width="1.5" stroke-linecap="round"/>
<path d="M4.00896 17H4" stroke="black" stroke-width="2" stroke-linecap="round" stroke-linejoin="round"/>
</svg>
